<svg width="47" height="47" viewBox="0 0 47 47" fill="none" xmlns="http://www.w3.org/2000/svg">
<path d="M0 0H11.4115C17.7139 0 22.823 5.10911 22.823 11.4115C22.823 17.7139 17.7139 22.823 11.4115 22.823H0V0Z" fill="#FBBA12"/>
<path d="M0 36.5553C0 29.7188 5.54209 24.1768 12.3786 24.1768H22.823V46.9998H0V36.5553Z" fill="#FBBA12"/>
<path d="M24.177 35.5883C24.177 29.2859 29.2861 24.1768 35.5885 24.1768H47V46.9998H35.5885C29.2861 46.9998 24.177 41.8907 24.177 35.5883Z" fill="#FBBA12"/>
<path d="M24.177 0H47V10.4445C47 17.281 41.458 22.823 34.6214 22.823H24.177V0Z" fill="#FBBA12"/>
</svg>
